<svg width="91" height="38" viewBox="0 0 91 38" fill="none" xmlns="http://www.w3.org/2000/svg">
<path d="M15.2174 37H0V0.478271H27.3913V17.2174H24.3478V3.52175H3.04348V11.1304H24.3478V14.1739H3.04348V18.7391H22.9783V21.7826H3.04348V26.3478H19.7826V29.3913H3.04348V33.9565H15.2174V37Z" fill="white"/>
<path d="M22.8261 5.04352H18.2609V9.60874H22.8261V5.04352Z" fill="white"/>
<path d="M34.5434 22.8478L31.5 25.8913L29.3695 23.7609L32.413 20.7174C31.8043 20.413 31.0434 20.2609 30.4348 20.2609C29.2174 20.2609 28.1521 20.7174 27.2391 21.6304C25.8695 23 25.5652 25.1304 26.3261 26.8043L18.5652 34.5652L20.6956 36.6956L28.4565 28.9348C30.1304 29.6956 32.2608 29.3913 33.6304 28.0217C34.5434 27.1087 35 25.8913 35 24.8261C35 24.0652 34.8478 23.4565 34.5434 22.8478Z" fill="white"/>
<path d="M36.3477 9.46875H37.4434L40.2383 16.4238L43.0273 9.46875H44.1289L40.6602 18H39.8047L36.3477 9.46875ZM35.9902 9.46875H36.957L37.1152 14.6719V18H35.9902V9.46875ZM43.5137 9.46875H44.4805V18H43.3555V14.6719L43.5137 9.46875ZM50.041 16.916V13.6523C50.041 13.4023 49.9902 13.1855 49.8887 13.002C49.791 12.8145 49.6426 12.6699 49.4434 12.5684C49.2441 12.4668 48.998 12.416 48.7051 12.416C48.4316 12.416 48.1914 12.4629 47.9844 12.5566C47.7812 12.6504 47.6211 12.7734 47.5039 12.9258C47.3906 13.0781 47.334 13.2422 47.334 13.418H46.25C46.25 13.1914 46.3086 12.9668 46.4258 12.7441C46.543 12.5215 46.7109 12.3203 46.9297 12.1406C47.1523 11.957 47.418 11.8125 47.7266 11.707C48.0391 11.5977 48.3867 11.543 48.7695 11.543C49.2305 11.543 49.6367 11.6211 49.9883 11.7773C50.3438 11.9336 50.6211 12.1699 50.8203 12.4863C51.0234 12.7988 51.125 13.1914 51.125 13.6641V16.6172C51.125 16.8281 51.1426 17.0527 51.1777 17.291C51.2168 17.5293 51.2734 17.7344 51.3477 17.9062V18H50.2168C50.1621 17.875 50.1191 17.709 50.0879 17.502C50.0566 17.291 50.041 17.0957 50.041 16.916ZM50.2285 14.1562L50.2402 14.918H49.1445C48.8359 14.918 48.5605 14.9434 48.3184 14.9941C48.0762 15.041 47.873 15.1133 47.709 15.2109C47.5449 15.3086 47.4199 15.4316 47.334 15.5801C47.248 15.7246 47.2051 15.8945 47.2051 16.0898C47.2051 16.2891 47.25 16.4707 47.3398 16.6348C47.4297 16.7988 47.5645 16.9297 47.7441 17.0273C47.9277 17.1211 48.1523 17.168 48.418 17.168C48.75 17.168 49.043 17.0977 49.2969 16.957C49.5508 16.8164 49.752 16.6445 49.9004 16.4414C50.0527 16.2383 50.1348 16.041 50.1465 15.8496L50.6094 16.3711C50.582 16.5352 50.5078 16.7168 50.3867 16.916C50.2656 17.1152 50.1035 17.3066 49.9004 17.4902C49.7012 17.6699 49.4629 17.8203 49.1855 17.9414C48.9121 18.0586 48.6035 18.1172 48.2598 18.1172C47.8301 18.1172 47.4531 18.0332 47.1289 17.8652C46.8086 17.6973 46.5586 17.4727 46.3789 17.1914C46.2031 16.9062 46.1152 16.5879 46.1152 16.2363C46.1152 15.8965 46.1816 15.5977 46.3145 15.3398C46.4473 15.0781 46.6387 14.8613 46.8887 14.6895C47.1387 14.5137 47.4395 14.3809 47.791 14.291C48.1426 14.2012 48.5352 14.1562 48.9688 14.1562H50.2285ZM53.9141 13.0137V18H52.8301V11.6602H53.8555L53.9141 13.0137ZM53.6562 14.5898L53.2051 14.5723C53.209 14.1387 53.2734 13.7383 53.3984 13.3711C53.5234 13 53.6992 12.6777 53.9258 12.4043C54.1523 12.1309 54.4219 11.9199 54.7344 11.7715C55.0508 11.6191 55.4004 11.543 55.7832 11.543C56.0957 11.543 56.377 11.5859 56.627 11.6719C56.877 11.7539 57.0898 11.8867 57.2656 12.0703C57.4453 12.2539 57.582 12.4922 57.6758 12.7852C57.7695 13.0742 57.8164 13.4277 57.8164 13.8457V18H56.7266V13.834C56.7266 13.502 56.6777 13.2363 56.5801 13.0371C56.4824 12.834 56.3398 12.6875 56.1523 12.5977C55.9648 12.5039 55.7344 12.457 55.4609 12.457C55.1914 12.457 54.9453 12.5137 54.7227 12.627C54.5039 12.7402 54.3145 12.8965 54.1543 13.0957C53.998 13.2949 53.875 13.5234 53.7852 13.7812C53.6992 14.0352 53.6562 14.3047 53.6562 14.5898ZM63.3418 16.5352V11.6602H64.4316V18H63.3945L63.3418 16.5352ZM63.5469 15.1992L63.998 15.1875C63.998 15.6094 63.9531 16 63.8633 16.3594C63.7773 16.7148 63.6367 17.0234 63.4414 17.2852C63.2461 17.5469 62.9902 17.752 62.6738 17.9004C62.3574 18.0449 61.9727 18.1172 61.5195 18.1172C61.2109 18.1172 60.9277 18.0723 60.6699 17.9824C60.416 17.8926 60.1973 17.7539 60.0137 17.5664C59.8301 17.3789 59.6875 17.1348 59.5859 16.834C59.4883 16.5332 59.4395 16.1719 59.4395 15.75V11.6602H60.5234V15.7617C60.5234 16.0469 60.5547 16.2832 60.6172 16.4707C60.6836 16.6543 60.7715 16.8008 60.8809 16.9102C60.9941 17.0156 61.1191 17.0898 61.2559 17.1328C61.3965 17.1758 61.541 17.1973 61.6895 17.1973C62.1504 17.1973 62.5156 17.1094 62.7852 16.9336C63.0547 16.7539 63.248 16.5137 63.3652 16.2129C63.4863 15.9082 63.5469 15.5703 63.5469 15.1992ZM68.7383 11.6602V12.4922H65.3105V11.6602H68.7383ZM66.4707 10.1191H67.5547V16.4297C67.5547 16.6445 67.5879 16.8066 67.6543 16.916C67.7207 17.0254 67.8066 17.0977 67.9121 17.1328C68.0176 17.168 68.1309 17.1855 68.252 17.1855C68.3418 17.1855 68.4355 17.1777 68.5332 17.1621C68.6348 17.1426 68.7109 17.127 68.7617 17.1152L68.7676 18C68.6816 18.0273 68.5684 18.0527 68.4277 18.0762C68.291 18.1035 68.125 18.1172 67.9297 18.1172C67.6641 18.1172 67.4199 18.0645 67.1973 17.959C66.9746 17.8535 66.7969 17.6777 66.6641 17.4316C66.5352 17.1816 66.4707 16.8457 66.4707 16.4238V10.1191Z" fill="white"/>
<path d="M56.5371 27.8438C56.5371 27.6445 56.5059 27.4688 56.4434 27.3164C56.3848 27.1602 56.2793 27.0195 56.127 26.8945C55.9785 26.7695 55.7715 26.6504 55.5059 26.5371C55.2441 26.4238 54.9121 26.3086 54.5098 26.1914C54.0879 26.0664 53.707 25.9277 53.3672 25.7754C53.0273 25.6191 52.7363 25.4414 52.4941 25.2422C52.252 25.043 52.0664 24.8145 51.9375 24.5566C51.8086 24.2988 51.7441 24.0039 51.7441 23.6719C51.7441 23.3398 51.8125 23.0332 51.9492 22.752C52.0859 22.4707 52.2812 22.2266 52.5352 22.0195C52.793 21.8086 53.0996 21.6445 53.4551 21.5273C53.8105 21.4102 54.207 21.3516 54.6445 21.3516C55.2852 21.3516 55.8281 21.4746 56.2734 21.7207C56.7227 21.9629 57.0645 22.2812 57.2988 22.6758C57.5332 23.0664 57.6504 23.4844 57.6504 23.9297H56.5254C56.5254 23.6094 56.457 23.3262 56.3203 23.0801C56.1836 22.8301 55.9766 22.6348 55.6992 22.4941C55.4219 22.3496 55.0703 22.2773 54.6445 22.2773C54.2422 22.2773 53.9102 22.3379 53.6484 22.459C53.3867 22.5801 53.1914 22.7441 53.0625 22.9512C52.9375 23.1582 52.875 23.3945 52.875 23.6602C52.875 23.8398 52.9121 24.0039 52.9863 24.1523C53.0645 24.2969 53.1836 24.4316 53.3438 24.5566C53.5078 24.6816 53.7148 24.7969 53.9648 24.9023C54.2188 25.0078 54.5215 25.1094 54.873 25.207C55.3574 25.3438 55.7754 25.4961 56.127 25.6641C56.4785 25.832 56.7676 26.0215 56.9941 26.2324C57.2246 26.4395 57.3945 26.6758 57.5039 26.9414C57.6172 27.2031 57.6738 27.5 57.6738 27.832C57.6738 28.1797 57.6035 28.4941 57.4629 28.7754C57.3223 29.0566 57.1211 29.2969 56.8594 29.4961C56.5977 29.6953 56.2832 29.8496 55.916 29.959C55.5527 30.0645 55.1465 30.1172 54.6973 30.1172C54.3027 30.1172 53.9141 30.0625 53.5312 29.9531C53.1523 29.8438 52.8066 29.6797 52.4941 29.4609C52.1855 29.2422 51.9375 28.9727 51.75 28.6523C51.5664 28.3281 51.4746 27.9531 51.4746 27.5273H52.5996C52.5996 27.8203 52.6562 28.0723 52.7695 28.2832C52.8828 28.4902 53.0371 28.6621 53.2324 28.7988C53.4316 28.9355 53.6562 29.0371 53.9062 29.1035C54.1602 29.166 54.4238 29.1973 54.6973 29.1973C55.0918 29.1973 55.4258 29.1426 55.6992 29.0332C55.9727 28.9238 56.1797 28.7676 56.3203 28.5645C56.4648 28.3613 56.5371 28.1211 56.5371 27.8438ZM60.7324 29.3438L62.4961 23.6602H63.6562L61.1133 30.9785C61.0547 31.1348 60.9766 31.3027 60.8789 31.4824C60.7852 31.666 60.6641 31.8398 60.5156 32.0039C60.3672 32.168 60.1875 32.3008 59.9766 32.4023C59.7695 32.5078 59.5215 32.5605 59.2324 32.5605C59.1465 32.5605 59.0371 32.5488 58.9043 32.5254C58.7715 32.502 58.6777 32.4824 58.623 32.4668L58.6172 31.5879C58.6484 31.5918 58.6973 31.5957 58.7637 31.5996C58.834 31.6074 58.8828 31.6113 58.9102 31.6113C59.1562 31.6113 59.3652 31.5781 59.5371 31.5117C59.709 31.4492 59.8535 31.3418 59.9707 31.1895C60.0918 31.041 60.1953 30.8359 60.2812 30.5742L60.7324 29.3438ZM59.4375 23.6602L61.084 28.582L61.3652 29.7246L60.5859 30.123L58.2539 23.6602H59.4375ZM68.3262 28.3184C68.3262 28.1621 68.291 28.0176 68.2207 27.8848C68.1543 27.748 68.0156 27.625 67.8047 27.5156C67.5977 27.4023 67.2852 27.3047 66.8672 27.2227C66.5156 27.1484 66.1973 27.0605 65.9121 26.959C65.6309 26.8574 65.3906 26.7344 65.1914 26.5898C64.9961 26.4453 64.8457 26.2754 64.7402 26.0801C64.6348 25.8848 64.582 25.6562 64.582 25.3945C64.582 25.1445 64.6367 24.9082 64.7461 24.6855C64.8594 24.4629 65.0176 24.2656 65.2207 24.0938C65.4277 23.9219 65.6758 23.7871 65.9648 23.6895C66.2539 23.5918 66.5762 23.543 66.9316 23.543C67.4395 23.543 67.873 23.6328 68.2324 23.8125C68.5918 23.9922 68.8672 24.2324 69.0586 24.5332C69.25 24.8301 69.3457 25.1602 69.3457 25.5234H68.2617C68.2617 25.3477 68.209 25.1777 68.1035 25.0137C68.002 24.8457 67.8516 24.707 67.6523 24.5977C67.457 24.4883 67.2168 24.4336 66.9316 24.4336C66.6309 24.4336 66.3867 24.4805 66.1992 24.5742C66.0156 24.6641 65.8809 24.7793 65.7949 24.9199C65.7129 25.0605 65.6719 25.209 65.6719 25.3652C65.6719 25.4824 65.6914 25.5879 65.7305 25.6816C65.7734 25.7715 65.8477 25.8555 65.9531 25.9336C66.0586 26.0078 66.207 26.0781 66.3984 26.1445C66.5898 26.2109 66.834 26.2773 67.1309 26.3438C67.6504 26.4609 68.0781 26.6016 68.4141 26.7656C68.75 26.9297 69 27.1309 69.1641 27.3691C69.3281 27.6074 69.4102 27.8965 69.4102 28.2363C69.4102 28.5137 69.3516 28.7676 69.2344 28.998C69.1211 29.2285 68.9551 29.4277 68.7363 29.5957C68.5215 29.7598 68.2637 29.8887 67.9629 29.9824C67.666 30.0723 67.332 30.1172 66.9609 30.1172C66.4023 30.1172 65.9297 30.0176 65.543 29.8184C65.1562 29.6191 64.8633 29.3613 64.6641 29.0449C64.4648 28.7285 64.3652 28.3945 64.3652 28.043H65.4551C65.4707 28.3398 65.5566 28.5762 65.7129 28.752C65.8691 28.9238 66.0605 29.0469 66.2871 29.1211C66.5137 29.1914 66.7383 29.2266 66.9609 29.2266C67.2578 29.2266 67.5059 29.1875 67.7051 29.1094C67.9082 29.0312 68.0625 28.9238 68.168 28.7871C68.2734 28.6504 68.3262 28.4941 68.3262 28.3184ZM73.4883 23.6602V24.4922H70.0605V23.6602H73.4883ZM71.2207 22.1191H72.3047V28.4297C72.3047 28.6445 72.3379 28.8066 72.4043 28.916C72.4707 29.0254 72.5566 29.0977 72.6621 29.1328C72.7676 29.168 72.8809 29.1855 73.002 29.1855C73.0918 29.1855 73.1855 29.1777 73.2832 29.1621C73.3848 29.1426 73.4609 29.127 73.5117 29.1152L73.5176 30C73.4316 30.0273 73.3184 30.0527 73.1777 30.0762C73.041 30.1035 72.875 30.1172 72.6797 30.1172C72.4141 30.1172 72.1699 30.0645 71.9473 29.959C71.7246 29.8535 71.5469 29.6777 71.4141 29.4316C71.2852 29.1816 71.2207 28.8457 71.2207 28.4238V22.1191ZM77.3906 30.1172C76.9492 30.1172 76.5488 30.043 76.1895 29.8945C75.834 29.7422 75.5273 29.5293 75.2695 29.2559C75.0156 28.9824 74.8203 28.6582 74.6836 28.2832C74.5469 27.9082 74.4785 27.498 74.4785 27.0527V26.8066C74.4785 26.291 74.5547 25.832 74.707 25.4297C74.8594 25.0234 75.0664 24.6797 75.3281 24.3984C75.5898 24.1172 75.8867 23.9043 76.2188 23.7598C76.5508 23.6152 76.8945 23.543 77.25 23.543C77.7031 23.543 78.0938 23.6211 78.4219 23.7773C78.7539 23.9336 79.0254 24.1523 79.2363 24.4336C79.4473 24.7109 79.6035 25.0391 79.7051 25.418C79.8066 25.793 79.8574 26.2031 79.8574 26.6484V27.1348H75.123V26.25H78.7734V26.168C78.7578 25.8867 78.6992 25.6133 78.5977 25.3477C78.5 25.082 78.3438 24.8633 78.1289 24.6914C77.9141 24.5195 77.6211 24.4336 77.25 24.4336C77.0039 24.4336 76.7773 24.4863 76.5703 24.5918C76.3633 24.6934 76.1855 24.8457 76.0371 25.0488C75.8887 25.252 75.7734 25.5 75.6914 25.793C75.6094 26.0859 75.5684 26.4238 75.5684 26.8066V27.0527C75.5684 27.3535 75.6094 27.6367 75.6914 27.9023C75.7773 28.1641 75.9004 28.3945 76.0605 28.5938C76.2246 28.793 76.4219 28.9492 76.6523 29.0625C76.8867 29.1758 77.1523 29.2324 77.4492 29.2324C77.832 29.2324 78.1562 29.1543 78.4219 28.998C78.6875 28.8418 78.9199 28.6328 79.1191 28.3711L79.7754 28.8926C79.6387 29.0996 79.4648 29.2969 79.2539 29.4844C79.043 29.6719 78.7832 29.8242 78.4746 29.9414C78.1699 30.0586 77.8086 30.1172 77.3906 30.1172ZM82.2012 24.9199V30H81.1113V23.6602H82.1426L82.2012 24.9199ZM81.9785 26.5898L81.4746 26.5723C81.4785 26.1387 81.5352 25.7383 81.6445 25.3711C81.7539 25 81.916 24.6777 82.1309 24.4043C82.3457 24.1309 82.6133 23.9199 82.9336 23.7715C83.2539 23.6191 83.625 23.543 84.0469 23.543C84.3438 23.543 84.6172 23.5859 84.8672 23.6719C85.1172 23.7539 85.334 23.8848 85.5176 24.0645C85.7012 24.2441 85.8438 24.4746 85.9453 24.7559C86.0469 25.0371 86.0977 25.377 86.0977 25.7754V30H85.0137V25.8281C85.0137 25.4961 84.957 25.2305 84.8438 25.0312C84.7344 24.832 84.5781 24.6875 84.375 24.5977C84.1719 24.5039 83.9336 24.457 83.6602 24.457C83.3398 24.457 83.0723 24.5137 82.8574 24.627C82.6426 24.7402 82.4707 24.8965 82.3418 25.0957C82.2129 25.2949 82.1191 25.5234 82.0605 25.7812C82.0059 26.0352 81.9785 26.3047 81.9785 26.5898ZM86.0859 25.9922L85.3594 26.2148C85.3633 25.8672 85.4199 25.5332 85.5293 25.2129C85.6426 24.8926 85.8047 24.6074 86.0156 24.3574C86.2305 24.1074 86.4941 23.9102 86.8066 23.7656C87.1191 23.6172 87.4766 23.543 87.8789 23.543C88.2188 23.543 88.5195 23.5879 88.7812 23.6777C89.0469 23.7676 89.2695 23.9062 89.4492 24.0938C89.6328 24.2773 89.7715 24.5137 89.8652 24.8027C89.959 25.0918 90.0059 25.4355 90.0059 25.834V30H88.916V25.8223C88.916 25.4668 88.8594 25.1914 88.7461 24.9961C88.6367 24.7969 88.4805 24.6582 88.2773 24.5801C88.0781 24.498 87.8398 24.457 87.5625 24.457C87.3242 24.457 87.1133 24.498 86.9297 24.5801C86.7461 24.6621 86.5918 24.7754 86.4668 24.9199C86.3418 25.0605 86.2461 25.2227 86.1797 25.4062C86.1172 25.5898 86.0859 25.7852 86.0859 25.9922Z" fill="white"/>
</svg>
